<?xml version="1.0" standalone="no"?>
<!DOCTYPE svg PUBLIC "-//W3C//DTD SVG 20010904//EN"
 "http://www.w3.org/TR/2001/REC-SVG-20010904/DTD/svg10.dtd">
<svg version="1.0" xmlns="http://www.w3.org/2000/svg"
 width="210.000000pt" height="46.000000pt" viewBox="0 0 210.000000 46.000000"
 preserveAspectRatio="xMidYMid meet">

<g transform="translate(0.000000,46.000000) scale(0.100000,-0.100000)"
fill="#000000" stroke="none">
<path d="M1062 353 c3 -38 3 -38 51 -41 46 -3 47 -3 47 27 0 31 -3 33 -68 46
l-33 7 3 -39z"/>
<path d="M920 320 l0 -40 -45 7 c-82 11 -133 -52 -120 -148 9 -65 41 -99 94
-99 22 0 43 5 46 10 5 8 11 8 20 0 7 -6 35 -10 62 -8 l48 3 3 158 3 157 -56 0
-55 0 0 -40z m-15 -156 c0 -37 -4 -49 -15 -49 -17 0 -25 43 -15 82 10 42 30
20 30 -33z"/>
<path d="M335 310 c-4 -16 -11 -30 -16 -30 -5 0 -9 -18 -9 -40 0 -22 5 -40 10
-40 6 0 10 -20 10 -45 0 -80 38 -121 106 -113 24 2 30 8 32 34 2 25 -1 33 -17
37 -18 4 -21 13 -21 52 0 38 3 46 15 41 12 -4 15 3 15 34 0 29 -4 40 -15 40
-10 0 -15 10 -15 30 0 29 -2 30 -44 30 -41 0 -45 -2 -51 -30z"/>
<path d="M114 301 c-60 -37 -51 -110 19 -144 20 -10 37 -23 37 -28 0 -15 -47
-21 -70 -9 -27 15 -29 13 -23 -28 7 -42 37 -55 117 -50 49 4 63 9 83 32 40 47
25 104 -37 136 -22 11 -40 25 -40 30 0 6 23 10 50 10 53 0 61 10 40 51 -15 27
-131 27 -176 0z"/>
<path d="M1815 308 c-9 -25 -55 -230 -55 -244 0 -10 14 -14 55 -14 52 0 55 1
55 26 0 22 4 25 28 22 19 -2 28 -9 30 -25 3 -21 9 -23 68 -23 77 0 75 -6 36
155 l-27 110 -93 3 c-68 2 -94 -1 -97 -10z m98 -120 c5 -34 3 -38 -15 -38 -16
0 -19 5 -14 23 3 12 6 33 6 47 0 35 16 12 23 -32z"/>
<path d="M1610 188 c0 -68 4 -129 9 -136 5 -9 25 -12 62 -10 l54 3 3 133 3
132 -66 0 -65 0 0 -122z"/>
<path d="M488 233 c-3 -86 2 -154 13 -174 11 -22 68 -26 102 -8 16 9 22 9 25
0 6 -18 89 -14 96 5 3 9 6 65 6 125 l0 109 -55 0 -55 0 0 -94 c0 -86 -9 -120
-27 -102 -3 3 -6 47 -7 98 l-1 93 -47 3 -48 3 -2 -58z"/>
<path d="M1064 277 c-2 -7 -3 -62 -2 -123 l3 -109 46 -3 46 -3 7 62 c3 34 6
91 6 125 l0 64 -50 0 c-33 0 -52 -5 -56 -13z"/>
<path d="M1241 264 c-39 -33 -56 -90 -41 -143 16 -59 50 -81 125 -81 78 0 105
24 113 100 9 94 -35 150 -119 150 -36 0 -55 -6 -78 -26z m103 -65 c8 -44 8
-63 -4 -94 -9 -23 -13 -25 -25 -15 -10 9 -15 32 -15 76 0 56 2 64 19 64 13 0
20 -10 25 -31z"/>
<path d="M1464 105 c3 -9 6 -28 6 -41 0 -22 4 -24 51 -24 l50 0 -3 38 -3 37
-54 3 c-46 3 -53 1 -47 -13z"/>
</g>
</svg>
